ply
format ascii 1.0
comment Created by Blender 2.62 (sub 0) - www.blender.org, source file: ''
element vertex 194
property float x
property float y
property float z
element face 96
property list uchar uint vertex_indices
end_header
0.000000 0.000000 -1.000000
0.000000 1.000000 -1.000000
0.195090 0.980785 -1.000000
0.000000 0.000000 1.000000
0.195092 0.980785 1.000000
0.000002 1.000000 1.000000
0.382683 0.923880 -1.000000
0.382685 0.923879 1.000000
0.555570 0.831470 -1.000000
0.555572 0.831469 1.000000
0.707107 0.707107 -1.000000
0.707108 0.707105 1.000000
0.831470 0.555570 -1.000000
0.831471 0.555569 1.000000
0.923880 0.382683 -1.000000
0.923880 0.382682 1.000000
0.980785 0.195090 -1.000000
0.980786 0.195088 1.000000
1.000000 0.000000 -1.000000
1.000000 -0.000002 1.000000
0.980785 -0.195090 -1.000000
0.980785 -0.195092 1.000000
0.923880 -0.382683 -1.000000
0.923879 -0.382685 1.000000
0.831470 -0.555570 -1.000000
0.831469 -0.555571 1.000000
0.707107 -0.707107 -1.000000
0.707106 -0.707107 1.000000
0.555570 -0.831470 -1.000000
0.555570 -0.831470 1.000000
0.382683 -0.923880 -1.000000
0.382684 -0.923880 1.000000
0.195090 -0.980785 -1.000000
0.195091 -0.980785 1.000000
-0.000000 -1.000000 -1.000000
0.000001 -1.000000 1.000000
-0.195091 -0.980785 -1.000000
-0.195089 -0.980786 1.000000
-0.382684 -0.923879 -1.000000
-0.382682 -0.923880 1.000000
-0.555571 -0.831469 -1.000000
-0.555568 -0.831471 1.000000
-0.707107 -0.707106 -1.000000
-0.707105 -0.707109 1.000000
-0.831470 -0.555570 -1.000000
-0.831468 -0.555573 1.000000
-0.923880 -0.382683 -1.000000
-0.923878 -0.382686 1.000000
-0.980785 -0.195089 -1.000000
-0.980785 -0.195094 1.000000
-1.000000 0.000001 -1.000000
-1.000000 -0.000004 1.000000
-0.980785 0.195091 -1.000000
-0.980786 0.195086 1.000000
-0.923879 0.382684 -1.000000
-0.923881 0.382679 1.000000
-0.831469 0.555571 -1.000000
-0.831473 0.555566 1.000000
-0.707106 0.707108 -1.000000
-0.707111 0.707103 1.000000
-0.555569 0.831470 -1.000000
-0.555575 0.831466 1.000000
-0.382682 0.923880 -1.000000
-0.382689 0.923877 1.000000
-0.195089 0.980786 -1.000000
-0.195097 0.980784 1.000000
0.000000 1.000000 -1.000000
0.000002 1.000000 1.000000
0.195092 0.980785 1.000000
0.195090 0.980785 -1.000000
0.195090 0.980785 -1.000000
0.195092 0.980785 1.000000
0.382685 0.923879 1.000000
0.382683 0.923880 -1.000000
0.382683 0.923880 -1.000000
0.382685 0.923879 1.000000
0.555572 0.831469 1.000000
0.555570 0.831470 -1.000000
0.555570 0.831470 -1.000000
0.555572 0.831469 1.000000
0.707108 0.707105 1.000000
0.707107 0.707107 -1.000000
0.707107 0.707107 -1.000000
0.707108 0.707105 1.000000
0.831471 0.555569 1.000000
0.831470 0.555570 -1.000000
0.831470 0.555570 -1.000000
0.831471 0.555569 1.000000
0.923880 0.382682 1.000000
0.923880 0.382683 -1.000000
0.923880 0.382683 -1.000000
0.923880 0.382682 1.000000
0.980786 0.195088 1.000000
0.980785 0.195090 -1.000000
0.980785 0.195090 -1.000000
0.980786 0.195088 1.000000
1.000000 -0.000002 1.000000
1.000000 0.000000 -1.000000
1.000000 0.000000 -1.000000
1.000000 -0.000002 1.000000
0.980785 -0.195092 1.000000
0.980785 -0.195090 -1.000000
0.980785 -0.195090 -1.000000
0.980785 -0.195092 1.000000
0.923879 -0.382685 1.000000
0.923880 -0.382683 -1.000000
0.923880 -0.382683 -1.000000
0.923879 -0.382685 1.000000
0.831469 -0.555571 1.000000
0.831470 -0.555570 -1.000000
0.831470 -0.555570 -1.000000
0.831469 -0.555571 1.000000
0.707106 -0.707107 1.000000
0.707107 -0.707107 -1.000000
0.707107 -0.707107 -1.000000
0.707106 -0.707107 1.000000
0.555570 -0.831470 1.000000
0.555570 -0.831470 -1.000000
0.555570 -0.831470 -1.000000
0.555570 -0.831470 1.000000
0.382684 -0.923880 1.000000
0.382683 -0.923880 -1.000000
0.382683 -0.923880 -1.000000
0.382684 -0.923880 1.000000
0.195091 -0.980785 1.000000
0.195090 -0.980785 -1.000000
0.195090 -0.980785 -1.000000
0.195091 -0.980785 1.000000
0.000001 -1.000000 1.000000
-0.000000 -1.000000 -1.000000
-0.000000 -1.000000 -1.000000
0.000001 -1.000000 1.000000
-0.195089 -0.980786 1.000000
-0.195091 -0.980785 -1.000000
-0.195091 -0.980785 -1.000000
-0.195089 -0.980786 1.000000
-0.382682 -0.923880 1.000000
-0.382684 -0.923879 -1.000000
-0.382684 -0.923879 -1.000000
-0.382682 -0.923880 1.000000
-0.555568 -0.831471 1.000000
-0.555571 -0.831469 -1.000000
-0.555571 -0.831469 -1.000000
-0.555568 -0.831471 1.000000
-0.707105 -0.707109 1.000000
-0.707107 -0.707106 -1.000000
-0.707107 -0.707106 -1.000000
-0.707105 -0.707109 1.000000
-0.831468 -0.555573 1.000000
-0.831470 -0.555570 -1.000000
-0.831470 -0.555570 -1.000000
-0.831468 -0.555573 1.000000
-0.923878 -0.382686 1.000000
-0.923880 -0.382683 -1.000000
-0.923880 -0.382683 -1.000000
-0.923878 -0.382686 1.000000
-0.980785 -0.195094 1.000000
-0.980785 -0.195089 -1.000000
-0.980785 -0.195089 -1.000000
-0.980785 -0.195094 1.000000
-1.000000 -0.000004 1.000000
-1.000000 0.000001 -1.000000
-1.000000 0.000001 -1.000000
-1.000000 -0.000004 1.000000
-0.980786 0.195086 1.000000
-0.980785 0.195091 -1.000000
-0.980785 0.195091 -1.000000
-0.980786 0.195086 1.000000
-0.923881 0.382679 1.000000
-0.923879 0.382684 -1.000000
-0.923879 0.382684 -1.000000
-0.923881 0.382679 1.000000
-0.831473 0.555566 1.000000
-0.831469 0.555571 -1.000000
-0.831469 0.555571 -1.000000
-0.831473 0.555566 1.000000
-0.707111 0.707103 1.000000
-0.707106 0.707108 -1.000000
-0.707106 0.707108 -1.000000
-0.707111 0.707103 1.000000
-0.555575 0.831466 1.000000
-0.555569 0.831470 -1.000000
-0.555569 0.831470 -1.000000
-0.555575 0.831466 1.000000
-0.382689 0.923877 1.000000
-0.382682 0.923880 -1.000000
-0.382682 0.923880 -1.000000
-0.382689 0.923877 1.000000
-0.195097 0.980784 1.000000
-0.195089 0.980786 -1.000000
0.000002 1.000000 1.000000
0.000000 1.000000 -1.000000
-0.195089 0.980786 -1.000000
-0.195097 0.980784 1.000000
3 0 1 2
3 3 4 5
3 0 2 6
3 3 7 4
3 0 6 8
3 3 9 7
3 0 8 10
3 3 11 9
3 0 10 12
3 3 13 11
3 0 12 14
3 3 15 13
3 0 14 16
3 3 17 15
3 0 16 18
3 3 19 17
3 0 18 20
3 3 21 19
3 0 20 22
3 3 23 21
3 0 22 24
3 3 25 23
3 0 24 26
3 3 27 25
3 0 26 28
3 3 29 27
3 0 28 30
3 3 31 29
3 0 30 32
3 3 33 31
3 0 32 34
3 3 35 33
3 0 34 36
3 3 37 35
3 0 36 38
3 3 39 37
3 0 38 40
3 3 41 39
3 0 40 42
3 3 43 41
3 0 42 44
3 3 45 43
3 0 44 46
3 3 47 45
3 0 46 48
3 3 49 47
3 0 48 50
3 3 51 49
3 0 50 52
3 3 53 51
3 0 52 54
3 3 55 53
3 0 54 56
3 3 57 55
3 0 56 58
3 3 59 57
3 0 58 60
3 3 61 59
3 0 60 62
3 3 63 61
3 0 62 64
3 3 65 63
3 64 1 0
3 3 5 65
4 66 67 68 69
4 70 71 72 73
4 74 75 76 77
4 78 79 80 81
4 82 83 84 85
4 86 87 88 89
4 90 91 92 93
4 94 95 96 97
4 98 99 100 101
4 102 103 104 105
4 106 107 108 109
4 110 111 112 113
4 114 115 116 117
4 118 119 120 121
4 122 123 124 125
4 126 127 128 129
4 130 131 132 133
4 134 135 136 137
4 138 139 140 141
4 142 143 144 145
4 146 147 148 149
4 150 151 152 153
4 154 155 156 157
4 158 159 160 161
4 162 163 164 165
4 166 167 168 169
4 170 171 172 173
4 174 175 176 177
4 178 179 180 181
4 182 183 184 185
4 186 187 188 189
4 190 191 192 193
